<svg width="437" height="456" viewBox="0 0 437 456" fill="none" xmlns="http://www.w3.org/2000/svg">
<path d="M1.8 419.085L25.2 302.085C28.8 280.485 32.7 258.285 36.9 235.485C41.1 212.685 45 190.185 48.6 167.985C52.5 145.785 55.5 124.935 57.6 105.435C74.7 100.035 93.15 96.135 112.95 93.735C132.75 91.035 152.4 89.685 171.9 89.685C194.7 89.685 210.15 94.635 218.25 104.535C226.65 114.435 230.85 127.785 230.85 144.585C230.85 159.885 227.25 175.335 220.05 190.935C212.85 206.235 203.4 220.185 191.7 232.785C180.3 245.085 167.7 254.835 153.9 262.035C159.3 274.035 165 287.235 171 301.635C177.3 315.735 183.15 329.235 188.55 342.135C191.55 349.635 194.55 357.135 197.55 364.635C200.85 372.135 204 379.635 207 387.135L137.25 411.435C134.25 400.935 131.4 390.885 128.7 381.285C126 371.685 123.45 362.235 121.05 352.935C118.05 341.835 115.2 331.185 112.5 320.985C109.8 310.485 107.4 301.185 105.3 293.085C103.5 284.985 102.45 279.285 102.15 275.985L96.3 277.785C94.5 287.385 92.25 299.085 89.55 312.885C87.15 326.685 84.9 340.035 82.8 352.935L74.7 400.185L1.8 419.085ZM107.55 223.785C112.95 223.185 119.55 220.935 127.35 217.035C135.45 212.835 143.4 207.735 151.2 201.735C159.3 195.735 166.05 189.585 171.45 183.285C176.85 176.985 179.55 171.435 179.55 166.635C179.55 160.635 175.95 156.735 168.75 154.935C161.85 152.835 152.7 151.785 141.3 151.785H131.4C129.6 152.085 127.95 152.235 126.45 152.235C124.95 152.235 123.45 152.235 121.95 152.235L107.55 223.785Z" fill="white"/>
<path d="M280.95 397.9C268.95 397.9 256.95 394.75 244.95 388.45C232.95 381.85 221.4 371.5 210.3 357.4L243.6 292.15C246.9 297.85 251.7 303.25 258 308.35C264.6 313.45 271.5 317.5 278.7 320.5C285.9 323.5 292.05 325 297.15 325C304.95 325 312.3 322.6 319.2 317.8C326.4 313 330 306.55 330 298.45C330 287.95 325.2 278.35 315.6 269.65C306 260.95 295.2 252.4 283.2 244C271.5 235.6 260.7 226.15 250.8 215.65C241.2 204.85 236.4 192.55 236.4 178.75C236.4 163.15 240.9 148.75 249.9 135.55C258.9 122.05 270.6 110.35 285 100.45C299.4 90.25 314.7 82.45 330.9 77.05C347.4 71.35 363 68.5 377.7 68.5C388.2 68.5 397.95 70.3 406.95 73.9C415.95 77.2 423.15 82.75 428.55 90.55C433.95 98.35 436.65 108.85 436.65 122.05C436.65 124.15 436.5 126.25 436.2 128.35C436.2 130.45 436.05 132.55 435.75 134.65C435.45 136.75 435 139 434.4 141.4C434.1 143.5 433.8 145.75 433.5 148.15L368.25 167.05C368.85 164.65 369.3 162.25 369.6 159.85C370.2 157.45 370.5 155.05 370.5 152.65C370.5 143.65 368.85 137.2 365.55 133.3C362.55 129.1 358.5 127 353.4 127C350.7 127 346.8 128.5 341.7 131.5C336.6 134.2 331.95 138.1 327.75 143.2C323.85 148 321.9 153.4 321.9 159.4C321.9 169.3 325.95 177.55 334.05 184.15C342.45 190.45 352.05 196.9 362.85 203.5C367.95 206.5 373.65 211.3 379.95 217.9C386.25 224.2 391.65 232.9 396.15 244C400.95 254.8 403.35 268.75 403.35 285.85C403.35 308.05 397.8 327.55 386.7 344.35C375.9 361.15 361.2 374.35 342.6 383.95C324 393.25 303.45 397.9 280.95 397.9Z" fill="white"/>
</svg>
